{
  "accessors": [
    {
      "bufferView": 2,
      "componentType": 5126,
      "count": 5971,
      "max": [
        1.0573062896728516,
        1.0573058128356934,
        0.53530657291412354
      ],
      "min": [
        -1.057306170463562,
        -1.0573062896728516,
        -1
      ],
      "type": "VEC3"
    },
    {
      "bufferView": 2,
      "byteOffset": 71652,
      "componentType": 5126,
      "count": 5971,
      "max": [
        1,
        1,
        0
      ],
      "min": [
        -1,
        -1,
        -1
      ],
      "type": "VEC3"
    },
    {
      "bufferView": 3,
      "componentType": 5126,
      "count": 5971,
      "max": [
        1,
        1,
        1,
        1
      ],
      "min": [
        -1,
        -1,
        -1,
        -1
      ],
      "type": "VEC4"
    },
    {
      "bufferView": 1,
      "componentType": 5126,
      "count": 5971,
      "max": [
        2.748448371887207,
        2.748448371887207
      ],
      "min": [
        -1.748448371887207,
        -1.748448371887207
      ],
      "type": "VEC2"
    },
    {
      "bufferView": 0,
      "componentType": 5125,
      "count": 30720,
      "max": [
        5970
      ],
      "min": [
        0
      ],
      "type": "SCALAR"
    },
    {
      "bufferView": 2,
      "byteOffset": 143304,
      "componentType": 5126,
      "count": 3571,
      "max": [
        1.111889123916626,
        1.1125960350036621,
        0.67467963695526123
      ],
      "min": [
        -1.1116108894348145,
        -1.112434983253479,
        0.53530657291412354
      ],
      "type": "VEC3"
    },
    {
      "bufferView": 2,
      "byteOffset": 186156,
      "componentType": 5126,
      "count": 3571,
      "max": [
        0.99945938587188721,
        0.99988913536071777,
        1
      ],
      "min": [
        -0.9989050030708313,
        -0.9999922513961792,
        -0.9798513650894165
      ],
      "type": "VEC3"
    },
    {
      "bufferView": 3,
      "byteOffset": 95536,
      "componentType": 5126,
      "count": 3571,
      "max": [
        1,
        1,
        0.99962472915649414,
        1
      ],
      "min": [
        -1,
        -1,
        -0.99999231100082397,
        1
      ],
      "type": "VEC4"
    },
    {
      "bufferView": 1,
      "byteOffset": 47768,
      "componentType": 5126,
      "count": 3571,
      "max": [
        1,
        1
      ],
      "min": [
        0,
        0
      ],
      "type": "VEC2"
    },
    {
      "bufferView": 0,
      "byteOffset": 122880,
      "componentType": 5125,
      "count": 18432,
      "max": [
        3570
      ],
      "min": [
        0
      ],
      "type": "SCALAR"
    }
  ],
  "asset": {
    "extras": {
      "author": "HillsidePoop (https://sketchfab.com/Mman)",
      "license": "CC-BY-4.0 (http://creativecommons.org/licenses/by/4.0/)",
      "source": "https://sketchfab.com/models/913a1607f63c4e86a7ab6df031d31b77",
      "title": "Marble Table"
    },
    "generator": "Sketchfab-3.34.6",
    "version": "2.0"
  },
  "bufferViews": [
    {
      "buffer": 0,
      "byteLength": 196608,
      "byteOffset": 0,
      "name": "floatBufferViews",
      "target": 34963
    },
    {
      "buffer": 0,
      "byteLength": 76336,
      "byteOffset": 196608,
      "byteStride": 8,
      "name": "floatBufferViews",
      "target": 34962
    },
    {
      "buffer": 0,
      "byteLength": 229008,
      "byteOffset": 272944,
      "byteStride": 12,
      "name": "floatBufferViews",
      "target": 34962
    },
    {
      "buffer": 0,
      "byteLength": 152672,
      "byteOffset": 501952,
      "byteStride": 16,
      "name": "floatBufferViews",
      "target": 34962
    }
  ],
  "buffers": [
    {
      "byteLength": 654624,
      "uri": "scene.bin"
    }
  ],
  "images": [
    {
      "uri": "textures/wood_metallicRoughness.png"
    },
    {
      "uri": "textures/wood_normal.png"
    },
    {
      "uri": "textures/wood_baseColor.jpeg"
    },
    {
      "uri": "textures/marble_metallicRoughness.png"
    },
    {
      "uri": "textures/marble_normal.png"
    },
    {
      "uri": "textures/marble_baseColor.jpeg"
    }
  ],
  "materials": [
    {
      "doubleSided": true,
      "emissiveFactor": [
        0,
        0,
        0
      ],
      "name": "wood",
      "normalTexture": {
        "index": 1,
        "scale": 1,
        "texCoord": 0
      },
      "pbrMetallicRoughness": {
        "baseColorFactor": [
          1,
          1,
          1,
          1
        ],
        "baseColorTexture": {
          "index": 2,
          "texCoord": 0
        },
        "metallicFactor": 0,
        "metallicRoughnessTexture": {
          "index": 0,
          "texCoord": 0
        },
        "roughnessFactor": 1
      }
    },
    {
      "doubleSided": true,
      "emissiveFactor": [
        0,
        0,
        0
      ],
      "name": "marble",
      "normalTexture": {
        "index": 4,
        "scale": 1,
        "texCoord": 0
      },
      "pbrMetallicRoughness": {
        "baseColorFactor": [
          1,
          1,
          1,
          1
        ],
        "baseColorTexture": {
          "index": 5,
          "texCoord": 0
        },
        "metallicFactor": 0,
        "metallicRoughnessTexture": {
          "index": 3,
          "texCoord": 0
        },
        "roughnessFactor": 1
      }
    }
  ],
  "meshes": [
    {
      "name": "Cube_wood_0",
      "primitives": [
        {
          "attributes": {
            "NORMAL": 1,
            "POSITION": 0,
            "TANGENT": 2,
            "TEXCOORD_0": 3
          },
          "indices": 4,
          "material": 0,
          "mode": 4
        }
      ]
    },
    {
      "name": "Cube_marble_0",
      "primitives": [
        {
          "attributes": {
            "NORMAL": 6,
            "POSITION": 5,
            "TANGENT": 7,
            "TEXCOORD_0": 8
          },
          "indices": 9,
          "material": 1,
          "mode": 4
        }
      ]
    }
  ],
  "nodes": [
    {
      "children": [
        1
      ],
      "name": "RootNode (gltf orientation matrix)",
      "rotation": [
        -0.70710678118654746,
        -0,
        -0,
        0.70710678118654757
      ]
    },
    {
      "children": [
        2
      ],
      "name": "RootNode (model correction matrix)"
    },
    {
      "children": [
        3
      ],
      "matrix": [
        1,
        0,
        0,
        0,
        0,
        0,
        1,
        0,
        0,
        -1,
        0,
        0,
        0,
        0,
        0,
        1
      ],
      "name": "2572bb45f67946dbb3276e69c0233cf7.fbx"
    },
    {
      "children": [
        4,
        7,
        10
      ],
      "name": "RootNode"
    },
    {
      "children": [
        5
      ],
      "matrix": [
        82.304406777953787,
        40.543383817470122,
        39.777112182238881,
        0,
        17.526011951428828,
        48.486851869826644,
        -85.68467833184566,
        0,
        -54.026137470741773,
        77.493607635615916,
        32.801177503402542,
        0,
        170.38002014160156,
        519.54095458984375,
        -843.2177734375,
        1
      ],
      "name": "Sun"
    },
    {
      "children": [
        6
      ],
      "matrix": [
        1,
        0,
        0,
        0,
        0,
        2.2204460492503131e-16,
        1,
        0,
        0,
        -1,
        2.2204460492503131e-16,
        0,
        0,
        0,
        0,
        1
      ],
      "name": ""
    },
    {
      "name": ""
    },
    {
      "children": [
        8,
        9
      ],
      "matrix": [
        100,
        0,
        0,
        0,
        0,
        -3.3792835489049626e-05,
        -207.41894531249727,
        0,
        0,
        99.999999999998678,
        -1.6292067939183141e-05,
        0,
        0,
        0,
        0,
        1
      ],
      "name": "Cube"
    },
    {
      "mesh": 0,
      "name": "Cube_wood_0"
    },
    {
      "mesh": 1,
      "name": "Cube_marble_0"
    },
    {
      "children": [
        11
      ],
      "matrix": [
        27.934078399798448,
        -38.849858619231938,
        -87.808736600299383,
        0,
        11.777533811554026,
        92.144923676696024,
        -37.021631677368283,
        0,
        95.294159427741491,
        -5.2024965943586743e-05,
        30.315395081665699,
        0,
        -109.96155548095703,
        175.98890686035156,
        390.84518432617188,
        1
      ],
      "name": "Camera"
    },
    {
      "name": ""
    }
  ],
  "samplers": [
    {
      "magFilter": 9729,
      "minFilter": 9987,
      "wrapS": 10497,
      "wrapT": 10497
    }
  ],
  "scene": 0,
  "scenes": [
    {
      "name": "OSG_Scene",
      "nodes": [
        0
      ]
    }
  ],
  "textures": [
    {
      "sampler": 0,
      "source": 0
    },
    {
      "sampler": 0,
      "source": 1
    },
    {
      "sampler": 0,
      "source": 2
    },
    {
      "sampler": 0,
      "source": 3
    },
    {
      "sampler": 0,
      "source": 4
    },
    {
      "sampler": 0,
      "source": 5
    }
  ]
}

